{
	"bufferViews":[{
		"buffer":0,
		"byteOffset":0,
		"byteLength":5388,
		"target":34963
	},
	{
		"buffer":0,
		"byteOffset":5388,
		"byteLength":17216,
		"target":34962,
		"byteStride":32
	},
	{
		"buffer":1,
		"byteOffset":0,
		"byteLength":6360,
		"target":34963
	},
	{
		"buffer":1,
		"byteOffset":6360,
		"byteLength":21888,
		"target":34962,
		"byteStride":32
	},
	{
		"buffer":2,
		"byteOffset":0,
		"byteLength":8280,
		"target":34963
	},
	{
		"buffer":2,
		"byteOffset":8280,
		"byteLength":25376,
		"target":34962,
		"byteStride":32
	},
	{
		"buffer":3,
		"byteOffset":0,
		"byteLength":2940,
		"target":34963
	},
	{
		"buffer":3,
		"byteOffset":2940,
		"byteLength":9856,
		"target":34962,
		"byteStride":32
	},
	{
		"buffer":4,
		"byteOffset":0,
		"byteLength":4104,
		"target":34963
	},
	{
		"buffer":4,
		"byteOffset":4104,
		"byteLength":13184,
		"target":34962,
		"byteStride":32
	},
	{
		"buffer":5,
		"byteOffset":0,
		"byteLength":1944,
		"target":34963
	},
	{
		"buffer":5,
		"byteOffset":1944,
		"byteLength":7968,
		"target":34962,
		"byteStride":32
	},
	{
		"buffer":6,
		"byteOffset":0,
		"byteLength":4812,
		"target":34963
	},
	{
		"buffer":6,
		"byteOffset":4812,
		"byteLength":16096,
		"target":34962,
		"byteStride":32
	}],
	"nodes":[{
		"name":"Boy_01_Meshes",
		"children":[1,
		3,
		5,
		7,
		9,
		11,
		13]
	},
	{
		"name":"Boy01_Head_Geo",
		"children":[2]
	},
	{
		"name":"Boy01_Head_Geo",
		"mesh":0
	},
	{
		"name":"Boy01_Hands_Geo",
		"children":[4]
	},
	{
		"name":"Boy01_Hands_Geo",
		"mesh":1
	},
	{
		"name":"Boy01_UpperBody_Geo",
		"children":[6]
	},
	{
		"name":"Boy01_UpperBody_Geo",
		"mesh":2
	},
	{
		"name":"Boy01_LowerBody_Geo",
		"children":[8]
	},
	{
		"name":"Boy01_LowerBody_Geo",
		"mesh":3
	},
	{
		"name":"Boy01_Shoes_Geo",
		"children":[10]
	},
	{
		"name":"Boy01_Shoes_Geo",
		"mesh":4
	},
	{
		"name":"Boy01_Scarf_Geo",
		"children":[12]
	},
	{
		"name":"Boy01_Scarf_Geo",
		"mesh":5
	},
	{
		"name":"Boy01_Hair_Geo",
		"children":[14]
	},
	{
		"name":"Boy01_Hair_Geo",
		"mesh":6
	}],
	"asset":{
		"version":"2.0",
		"generator":"Created using the official Cinema 4D glTF Exporter 1.000x284978"
	},
	"scenes":[{
		"nodes":[0]
	}],
	"meshes":[{
		"name":"Boy01_Head_Geo",
		"primitives":[{
			"attributes":{
				"POSITION":1,
				"NORMAL":2,
				"TEXCOORD_0":3
			},
			"indices":0,
			"material":0
		}]
	},
	{
		"name":"Boy01_Hands_Geo",
		"primitives":[{
			"attributes":{
				"POSITION":5,
				"NORMAL":6,
				"TEXCOORD_0":7
			},
			"indices":4,
			"material":1
		}]
	},
	{
		"name":"Boy01_UpperBody_Geo",
		"primitives":[{
			"attributes":{
				"POSITION":9,
				"NORMAL":10,
				"TEXCOORD_0":11
			},
			"indices":8,
			"material":2
		}]
	},
	{
		"name":"Boy01_LowerBody_Geo",
		"primitives":[{
			"attributes":{
				"POSITION":13,
				"NORMAL":14,
				"TEXCOORD_0":15
			},
			"indices":12,
			"material":3
		}]
	},
	{
		"name":"Boy01_Shoes_Geo",
		"primitives":[{
			"attributes":{
				"POSITION":17,
				"NORMAL":18,
				"TEXCOORD_0":19
			},
			"indices":16,
			"material":4
		}]
	},
	{
		"name":"Boy01_Scarf_Geo",
		"primitives":[{
			"attributes":{
				"POSITION":21,
				"NORMAL":22,
				"TEXCOORD_0":23
			},
			"indices":20,
			"material":5
		}]
	},
	{
		"name":"Boy01_Hair_Geo",
		"primitives":[{
			"attributes":{
				"POSITION":25,
				"NORMAL":26,
				"TEXCOORD_0":27
			},
			"indices":24,
			"material":6
		}]
	}],
	"accessors":[{
		"bufferView":0,
		"type":"SCALAR",
		"componentType":5123,
		"count":2694,
		"byteOffset":0,
		"min":[0],
		"max":[537]
	},
	{
		"bufferView":1,
		"type":"VEC3",
		"componentType":5126,
		"count":538,
		"byteOffset":0,
		"min":[-39.33750534057617,
		136.81594848632813,
		-27.259201049804689],
		"max":[37.6467399597168,
		198.20040893554688,
		34.51042175292969]
	},
	{
		"bufferView":1,
		"type":"VEC3",
		"componentType":5126,
		"count":538,
		"byteOffset":12,
		"min":[-0.9957208633422852,
		-0.9970902800559998,
		-0.998579740524292],
		"max":[0.9974416494369507,
		0.9842252135276794,
		0.9999997019767761]
	},
	{
		"bufferView":1,
		"type":"VEC2",
		"componentType":5126,
		"count":538,
		"byteOffset":24,
		"min":[-0.9920763969421387,
		0.0013405680656433106],
		"max":[-0.006123721599578857,
		0.989044189453125]
	},
	{
		"bufferView":2,
		"type":"SCALAR",
		"componentType":5123,
		"count":3180,
		"byteOffset":0,
		"min":[0],
		"max":[683]
	},
	{
		"bufferView":3,
		"type":"VEC3",
		"componentType":5126,
		"count":684,
		"byteOffset":0,
		"min":[-79.19902801513672,
		121.71966552734375,
		-11.327095031738282],
		"max":[79.19902038574219,
		132.3056182861328,
		5.118995666503906]
	},
	{
		"bufferView":3,
		"type":"VEC3",
		"componentType":5126,
		"count":684,
		"byteOffset":12,
		"min":[-0.9336206912994385,
		-0.9983088970184326,
		-0.9780198335647583],
		"max":[0.9336214661598206,
		0.9992767572402954,
		0.9940821528434753]
	},
	{
		"bufferView":3,
		"type":"VEC2",
		"componentType":5126,
		"count":684,
		"byteOffset":24,
		"min":[0.01895308494567871,
		-0.9767237901687622],
		"max":[0.9972630739212036,
		-0.014655828475952149]
	},
	{
		"bufferView":4,
		"type":"SCALAR",
		"componentType":5123,
		"count":4140,
		"byteOffset":0,
		"min":[0],
		"max":[792]
	},
	{
		"bufferView":5,
		"type":"VEC3",
		"componentType":5126,
		"count":793,
		"byteOffset":0,
		"min":[-55.385337829589847,
		78.3711166381836,
		-10.726860046386719],
		"max":[55.385040283203128,
		139.6970977783203,
		10.629226684570313]
	},
	{
		"bufferView":5,
		"type":"VEC3",
		"componentType":5126,
		"count":793,
		"byteOffset":12,
		"min":[-0.9997792840003967,
		-0.9846906661987305,
		-0.9995924234390259],
		"max":[0.999779999256134,
		0.9999529719352722,
		0.999990701675415]
	},
	{
		"bufferView":5,
		"type":"VEC2",
		"componentType":5126,
		"count":793,
		"byteOffset":24,
		"min":[0.013391256332397461,
		-0.9879410266876221],
		"max":[0.9489380121231079,
		-0.010314226150512696]
	},
	{
		"bufferView":6,
		"type":"SCALAR",
		"componentType":5123,
		"count":1470,
		"byteOffset":0,
		"min":[0],
		"max":[307]
	},
	{
		"bufferView":7,
		"type":"VEC3",
		"componentType":5126,
		"count":308,
		"byteOffset":0,
		"min":[-12.578286170959473,
		30.21927261352539,
		-8.519439697265625],
		"max":[12.578283309936524,
		83.35986328125,
		7.3309326171875]
	},
	{
		"bufferView":7,
		"type":"VEC3",
		"componentType":5126,
		"count":308,
		"byteOffset":12,
		"min":[-0.9996894001960754,
		-0.9834154844284058,
		-0.997198224067688],
		"max":[0.9996894001960754,
		0.24115495383739472,
		0.9992579817771912]
	},
	{
		"bufferView":7,
		"type":"VEC2",
		"componentType":5126,
		"count":308,
		"byteOffset":24,
		"min":[0.009576201438903809,
		-0.9314495325088501],
		"max":[0.992405116558075,
		-0.024340510368347169]
	},
	{
		"bufferView":8,
		"type":"SCALAR",
		"componentType":5123,
		"count":2052,
		"byteOffset":0,
		"min":[0],
		"max":[411]
	},
	{
		"bufferView":9,
		"type":"VEC3",
		"componentType":5126,
		"count":412,
		"byteOffset":0,
		"min":[-17.84270477294922,
		-0.012326240539550782,
		-10.81746768951416],
		"max":[17.842702865600587,
		30.83402442932129,
		26.934619903564454]
	},
	{
		"bufferView":9,
		"type":"VEC3",
		"componentType":5126,
		"count":412,
		"byteOffset":12,
		"min":[-0.9998244643211365,
		-0.9999179840087891,
		-0.997524082660675],
		"max":[0.9998244047164917,
		0.9961314797401428,
		0.9931764006614685]
	},
	{
		"bufferView":9,
		"type":"VEC2",
		"componentType":5126,
		"count":412,
		"byteOffset":24,
		"min":[0.012417115271091462,
		-0.9854326248168945],
		"max":[0.9885349869728088,
		-0.008231520652770996]
	},
	{
		"bufferView":10,
		"type":"SCALAR",
		"componentType":5123,
		"count":972,
		"byteOffset":0,
		"min":[0],
		"max":[248]
	},
	{
		"bufferView":11,
		"type":"VEC3",
		"componentType":5126,
		"count":249,
		"byteOffset":0,
		"min":[-11.410425186157227,
		94.52640533447266,
		-13.385902404785157],
		"max":[14.759393692016602,
		143.9262237548828,
		11.021713256835938]
	},
	{
		"bufferView":11,
		"type":"VEC3",
		"componentType":5126,
		"count":249,
		"byteOffset":12,
		"min":[-0.995015025138855,
		-0.9867388010025024,
		-0.9902645349502564],
		"max":[0.9886524081230164,
		0.9939213991165161,
		0.9939730167388916]
	},
	{
		"bufferView":11,
		"type":"VEC2",
		"componentType":5126,
		"count":249,
		"byteOffset":24,
		"min":[0.032612480223178866,
		-0.9887133836746216],
		"max":[0.9867486357688904,
		-0.008805990219116211]
	},
	{
		"bufferView":12,
		"type":"SCALAR",
		"componentType":5123,
		"count":2406,
		"byteOffset":0,
		"min":[0],
		"max":[502]
	},
	{
		"bufferView":13,
		"type":"VEC3",
		"componentType":5126,
		"count":503,
		"byteOffset":0,
		"min":[-42.97384262084961,
		144.73863220214845,
		-35.56874084472656],
		"max":[40.006492614746097,
		211.5941619873047,
		28.178482055664064]
	},
	{
		"bufferView":13,
		"type":"VEC3",
		"componentType":5126,
		"count":503,
		"byteOffset":12,
		"min":[-0.9662851095199585,
		-0.9854333996772766,
		-0.9961758255958557],
		"max":[0.9879872798919678,
		0.9973883628845215,
		0.9844253659248352]
	},
	{
		"bufferView":13,
		"type":"VEC2",
		"componentType":5126,
		"count":503,
		"byteOffset":24,
		"min":[0.04495595395565033,
		-0.9787024855613709],
		"max":[0.9535019397735596,
		-0.007741093635559082]
	}],
	"buffers":[{
		"uri":"data:application/octet-stream;base64,",
		"byteLength":22604
	},
	{
		"uri":"data:application/octet-stream;base64,",
		"byteLength":28248
	},
	{
		"uri":"data:application/octet-stream;base64,",
		"byteLength":33656
	},
	{
		"uri":"data:application/octet-stream;base64,",
		"byteLength":12796
	},
	{
		"uri":"data:application/octet-stream;base64,",
		"byteLength":17288
	},
	{
		"uri":"data:application/octet-stream;base64,",
		"byteLength":9912
	},
	{
		"uri":"data:application/octet-stream;base64,",
		"byteLength":20908
	}],
	"images":[{
		"uri":"data:image/jpeg;base64,"
	},
	{
		"uri":"data:image/jpeg;base64,"
	},
	{
		"uri":"data:image/jpeg;base64,"
	},
	{
		"uri":"data:image/jpeg;base64,"
	},
	{
		"uri":"data:image/jpeg;base64,"
	},
	{
		"uri":"data:image/jpeg;base64,"
	},
	{
		"uri":"data:image/jpeg;base64,"
	}],
	"samplers":[{
		"magFilter":9729,
		"minFilter":9729,
		"wrapS":10497,
		"wrapT":10497
	},
	{
		"magFilter":9729,
		"minFilter":9729,
		"wrapS":10497,
		"wrapT":10497
	},
	{
		"magFilter":9729,
		"minFilter":9729,
		"wrapS":10497,
		"wrapT":10497
	},
	{
		"magFilter":9729,
		"minFilter":9729,
		"wrapS":10497,
		"wrapT":10497
	},
	{
		"magFilter":9729,
		"minFilter":9729,
		"wrapS":10497,
		"wrapT":10497
	},
	{
		"magFilter":9729,
		"minFilter":9729,
		"wrapS":10497,
		"wrapT":10497
	},
	{
		"magFilter":9729,
		"minFilter":9729,
		"wrapS":10497,
		"wrapT":10497
	}],
	"textures":[{
		"sampler":0,
		"source":0
	},
	{
		"sampler":1,
		"source":1
	},
	{
		"sampler":2,
		"source":2
	},
	{
		"sampler":3,
		"source":3
	},
	{
		"sampler":4,
		"source":4
	},
	{
		"sampler":5,
		"source":5
	},
	{
		"sampler":6,
		"source":6
	}],
	"materials":[{
		"pbrMetallicRoughness":{
			"baseColorTexture":{
				"index":0
			},
			"baseColorFactor":[1.0,
			1.0,
			1.0,
			1.0],
			"metallicFactor":0.0,
			"roughnessFactor":0.5678071905112637
		},
		"emissiveFactor":[0.0,
		0.0,
		0.0],
		"alphaMode":"OPAQUE",
		"doubleSided":false,
		"name":"Boy01_Head_MAT"
	},
	{
		"pbrMetallicRoughness":{
			"baseColorTexture":{
				"index":1
			},
			"baseColorFactor":[1.0,
			1.0,
			1.0,
			1.0],
			"metallicFactor":0.0,
			"roughnessFactor":0.5678071905112637
		},
		"emissiveFactor":[0.0,
		0.0,
		0.0],
		"alphaMode":"OPAQUE",
		"doubleSided":false,
		"name":"Boy01_Hands_MAT"
	},
	{
		"pbrMetallicRoughness":{
			"baseColorTexture":{
				"index":2
			},
			"baseColorFactor":[1.0,
			1.0,
			1.0,
			1.0],
			"metallicFactor":1.0,
			"roughnessFactor":1.0
		},
		"emissiveFactor":[0.0,
		0.0,
		0.0],
		"alphaMode":"OPAQUE",
		"doubleSided":false,
		"name":"Boy01_UpperBody_MAT"
	},
	{
		"pbrMetallicRoughness":{
			"baseColorTexture":{
				"index":3
			},
			"baseColorFactor":[1.0,
			1.0,
			1.0,
			1.0],
			"metallicFactor":0.0,
			"roughnessFactor":0.5678071905112637
		},
		"emissiveFactor":[0.0,
		0.0,
		0.0],
		"alphaMode":"OPAQUE",
		"doubleSided":false,
		"name":"Boy01_LowerBody_MAT"
	},
	{
		"pbrMetallicRoughness":{
			"baseColorTexture":{
				"index":4
			},
			"baseColorFactor":[1.0,
			1.0,
			1.0,
			1.0],
			"metallicFactor":0.0,
			"roughnessFactor":0.5678071905112637
		},
		"emissiveFactor":[0.0,
		0.0,
		0.0],
		"alphaMode":"OPAQUE",
		"doubleSided":false,
		"name":"Boy01_Shoes_MAT"
	},
	{
		"pbrMetallicRoughness":{
			"baseColorTexture":{
				"index":5
			},
			"baseColorFactor":[1.0,
			1.0,
			1.0,
			1.0],
			"metallicFactor":1.0,
			"roughnessFactor":1.0
		},
		"emissiveFactor":[0.0,
		0.0,
		0.0],
		"alphaMode":"OPAQUE",
		"doubleSided":false,
		"name":"Boy01_Scarf_MAT"
	},
	{
		"pbrMetallicRoughness":{
			"baseColorTexture":{
				"index":6
			},
			"baseColorFactor":[1.0,
			1.0,
			1.0,
			1.0],
			"metallicFactor":0.0,
			"roughnessFactor":0.5678071905112637
		},
		"emissiveFactor":[0.0,
		0.0,
		0.0],
		"alphaMode":"OPAQUE",
		"doubleSided":false,
		"name":"Boy01_Hair_MAT"
	}]
}