{
	"bufferViews":[{
		"buffer":0,
		"byteOffset":0,
		"byteLength":161280,
		"target":34963
	},
	{
		"buffer":0,
		"byteOffset":161280,
		"byteLength":161304,
		"target":34962
	},
	{
		"buffer":0,
		"byteOffset":322584,
		"byteLength":107536,
		"target":34962
	},
	{
		"buffer":0,
		"byteOffset":430120,
		"byteLength":215072,
		"target":34962
	},
	{
		"buffer":1,
		"byteOffset":0,
		"byteLength":320
	}],
	"nodes":[{
		"translation":[0.0,
		1.3584140539169312,
		0.0],
		"name":"Default",
		"rotation":[-0.10099031031131745,
		-0.003385750111192465,
		-0.018824290484189988,
		0.9947035312652588],
		"scale":[1.0,
		1.0,
		1.0],
		"children":[1]
	},
	{
		"name":"Default",
		"mesh":0,
		"skin":0
	},
	{
		"translation":[-0.014475449919700623,
		0.022699089720845224,
		0.057043347507715228],
		"name":"Default_",
		"rotation":[0.0,
		0.0,
		0.0,
		-1.0],
		"scale":[1.0,
		1.0,
		1.0],
		"children":[3]
	},
	{
		"translation":[0.20000000298023225,
		1.1922865544053584e-18,
		0.0],
		"name":"关节.1",
		"rotation":[0.6083564162254334,
		-0.32972559332847597,
		0.3858862817287445,
		0.6101436018943787],
		"scale":[1.0,
		1.0,
		1.0],
		"children":[4]
	},
	{
		"translation":[4.9960034784643067e-17,
		-8.326673015560919e-18,
		-0.5822365283966065],
		"name":"关节.2",
		"rotation":[-0.00016075081657618284,
		-0.00007824144995538518,
		0.0012045917101204396,
		-0.9999992847442627],
		"scale":[1.0,
		1.0,
		1.0],
		"children":[5]
	},
	{
		"translation":[-1.0408340855860843e-16,
		-1.2490008696160766e-17,
		-0.5297588109970093],
		"name":"关节.3",
		"rotation":[-0.0001851316774263978,
		-0.00009043556929100305,
		-0.0002235808060504496,
		0.9999999403953552],
		"scale":[1.0,
		1.0,
		1.0],
		"children":[6]
	},
	{
		"translation":[-3.3753225214816498e-10,
		-1.6497579691243659e-10,
		-0.5297588109970093],
		"name":"关节.4",
		"rotation":[-0.00009727937867864966,
		-0.000047574532800354066,
		0.0002264337381348014,
		-0.9999999403953552],
		"scale":[1.0,
		1.0,
		1.0],
		"children":[7]
	},
	{
		"translation":[-2.954581024283698e-13,
		-1.4442891598399205e-13,
		-1.0469114780426026],
		"name":"关节.5",
		"rotation":[6.927791673660977e-14,
		-1.412203687323199e-13,
		-9.783452946550989e-27,
		-1.0],
		"scale":[1.0,
		1.0,
		1.0]
	}],
	"asset":{
		"version":"2.0",
		"generator":"Created using the official Cinema 4D glTF Exporter 1.000x284978"
	},
	"scenes":[{
		"nodes":[0,
		2]
	}],
	"meshes":[{
		"name":"Default",
		"primitives":[{
			"attributes":{
				"POSITION":1,
				"JOINTS_0":2,
				"WEIGHTS_0":3
			},
			"indices":0,
			"material":0
		}]
	}],
	"skins":[{
		"inverseBindMatrices":4,
		"joints":[3,
		4,
		5,
		6,
		7]
	}],
	"accessors":[{
		"bufferView":0,
		"type":"SCALAR",
		"componentType":5123,
		"count":80640,
		"byteOffset":0,
		"min":[0],
		"max":[13441]
	},
	{
		"bufferView":1,
		"type":"VEC3",
		"componentType":5126,
		"count":13442,
		"byteOffset":0,
		"min":[-0.9218513369560242,
		-1.3312132358551026,
		-1.0071038007736207],
		"max":[1.0576833486557007,
		1.2933449745178223,
		1.0094481706619263]
	},
	{
		"bufferView":2,
		"type":"VEC4",
		"componentType":5123,
		"count":13442,
		"byteOffset":0,
		"min":[1,
		1,
		0,
		0],
		"max":[4,
		4,
		2,
		3]
	},
	{
		"bufferView":3,
		"type":"VEC4",
		"componentType":5126,
		"count":13442,
		"byteOffset":0,
		"min":[0.5000534057617188,
		0.0001678492408245802,
		0.0,
		0.0],
		"max":[0.99981689453125,
		0.49993133544921877,
		0.0,
		0.0]
	},
	{
		"bufferView":4,
		"type":"MAT4",
		"componentType":5126,
		"count":5,
		"byteOffset":0,
		"min":[0.49101561307907107,
		-0.8648965954780579,
		0.1041453406214714,
		0.0,
		-0.08833334594964981,
		-0.1689533293247223,
		-0.9817546010017395,
		0.0,
		0.8651025891304016,
		0.4728495478630066,
		-0.15911561250686646,
		0.0,
		-0.04677854850888252,
		0.08282924443483353,
		-1.3463730812072755,
		1.0],
		"max":[0.4938676059246063,
		-0.863251805305481,
		0.10455431789159775,
		0.0,
		-0.0877055749297142,
		-0.1684255599975586,
		-0.9817079901695252,
		0.0,
		0.8666607737541199,
		0.4756917357444763,
		-0.15909622609615327,
		0.0,
		-0.04655304178595543,
		0.08318717777729035,
		1.3422770500183106,
		1.0]
	}],
	"buffers":[{
		"uri":"data:application/octet-stream;base64,",
		"byteLength":645192
	},
	{
		"uri":"data:application/octet-stream;base64,",
		"byteLength":320
	}],
	"materials":[{
		"pbrMetallicRoughness":{
			"baseColorFactor":[0.09565333333333326,
			0.34,
			0.0782,
			1.0],
			"metallicFactor":0.0,
			"roughnessFactor":0.5
		},
		"emissiveFactor":[0.0,
		0.0,
		0.0],
		"alphaMode":"OPAQUE",
		"doubleSided":true,
		"name":"材质"
	}]
}