{
	"bufferViews":[{
		"buffer":0,
		"byteOffset":0,
		"byteLength":161280,
		"target":34963
	},
	{
		"buffer":0,
		"byteOffset":161280,
		"byteLength":161304,
		"target":34962
	},
	{
		"buffer":0,
		"byteOffset":322584,
		"byteLength":107536,
		"target":34962
	},
	{
		"buffer":0,
		"byteOffset":430120,
		"byteLength":215072,
		"target":34962
	},
	{
		"buffer":1,
		"byteOffset":0,
		"byteLength":320
	}],
	"nodes":[{
		"translation":[-0.014475449919700623,
		0.022699089720845224,
		0.057043347507715228],
		"name":"Default_",
		"rotation":[0.0,
		0.0,
		0.0,
		-1.0],
		"scale":[1.0,
		1.0,
		1.0],
		"children":[1,
		3]
	},
	{
		"translation":[0.014475449919700623,
		1.3357150554656983,
		-0.057043347507715228],
		"name":"Default",
		"rotation":[-0.10099031031131745,
		-0.003385750111192465,
		-0.018824290484189988,
		0.9947035312652588],
		"scale":[1.0,
		1.0,
		1.0],
		"children":[2]
	},
	{
		"name":"Default",
		"mesh":0,
		"skin":0
	},
	{
		"translation":[0.20000000298023225,
		1.1922865544053584e-18,
		0.0],
		"name":"关节.1",
		"rotation":[0.6083797216415405,
		-0.32968804240226748,
		0.3859207034111023,
		0.6101189255714417],
		"scale":[1.0,
		1.0,
		1.0],
		"children":[4]
	},
	{
		"translation":[4.9960034784643067e-17,
		-8.326673015560919e-18,
		-0.5822365283966065],
		"name":"关节.2",
		"rotation":[-5.147023216522939e-7,
		-2.504077656340087e-7,
		0.0012045917101204396,
		-0.9999992847442627],
		"scale":[1.0,
		1.0,
		1.0],
		"children":[5]
	},
	{
		"translation":[-1.0408340855860843e-16,
		-1.2490008696160766e-17,
		-0.5297588109970093],
		"name":"关节.3",
		"rotation":[-6.006519583934278e-7,
		-2.933668667992606e-7,
		-0.00022358082060236484,
		1.0],
		"scale":[1.0,
		1.0,
		1.0],
		"children":[6]
	},
	{
		"translation":[-3.3753225214816498e-10,
		-1.6497579691243659e-10,
		-0.5297588109970093],
		"name":"关节.4",
		"rotation":[-3.191145481196145e-7,
		-1.5601528957631673e-7,
		0.0002264337381348014,
		-1.0],
		"scale":[1.0,
		1.0,
		1.0],
		"children":[7]
	},
	{
		"translation":[-2.954581024283698e-13,
		-1.4442891598399205e-13,
		-1.0469114780426026],
		"name":"关节.5",
		"rotation":[6.927791673660977e-14,
		-1.412203687323199e-13,
		-9.783452946550989e-27,
		-1.0],
		"scale":[1.0,
		1.0,
		1.0]
	}],
	"asset":{
		"version":"2.0",
		"generator":"Created using the official Cinema 4D glTF Exporter 1.000x284978"
	},
	"scenes":[{
		"nodes":[0]
	}],
	"meshes":[{
		"name":"Default",
		"primitives":[{
			"attributes":{
				"POSITION":1,
				"JOINTS_0":2,
				"WEIGHTS_0":3
			},
			"indices":0,
			"material":0
		}]
	}],
	"skins":[{
		"inverseBindMatrices":4,
		"joints":[3,
		4,
		5,
		6,
		7]
	}],
	"accessors":[{
		"bufferView":0,
		"type":"SCALAR",
		"componentType":5123,
		"count":80640,
		"byteOffset":0,
		"min":[0],
		"max":[13441]
	},
	{
		"bufferView":1,
		"type":"VEC3",
		"componentType":5126,
		"count":13442,
		"byteOffset":0,
		"min":[-0.9218695163726807,
		-1.3312212228775025,
		-1.007105827331543],
		"max":[1.057727575302124,
		1.2933427095413209,
		1.0094460248947144]
	},
	{
		"bufferView":2,
		"type":"VEC4",
		"componentType":5123,
		"count":13442,
		"byteOffset":0,
		"min":[1,
		1,
		0,
		0],
		"max":[4,
		4,
		2,
		3]
	},
	{
		"bufferView":3,
		"type":"VEC4",
		"componentType":5126,
		"count":13442,
		"byteOffset":0,
		"min":[0.5000534057617188,
		0.0001678492408245802,
		0.0,
		0.0],
		"max":[0.99981689453125,
		0.49993133544921877,
		0.0,
		0.0]
	},
	{
		"bufferView":4,
		"type":"MAT4",
		"componentType":5126,
		"count":5,
		"byteOffset":0,
		"min":[0.49101004004478457,
		-0.864885151386261,
		0.10432077199220658,
		0.0,
		-0.08828087151050568,
		-0.16882537305355073,
		-0.9817346334457398,
		0.0,
		0.8650998473167419,
		0.4728320240974426,
		-0.1591046005487442,
		0.0,
		-0.046755462884902957,
		0.082884281873703,
		-1.3463847637176514,
		1.0],
		"max":[0.4938693940639496,
		-0.863255500793457,
		0.10432209819555283,
		0.0,
		-0.08772245049476624,
		-0.16853369772434236,
		-0.9817345142364502,
		0.0,
		0.8666692972183228,
		0.4756973385810852,
		-0.15910454094409944,
		0.0,
		-0.04648108035326004,
		0.08303887397050858,
		1.3422807455062867,
		1.0]
	}],
	"buffers":[{
		"uri":"data:application/octet-stream;base64,",
		"byteLength":645192
	},
	{
		"uri":"data:application/octet-stream;base64,",
		"byteLength":320
	}],
	"materials":[{
		"pbrMetallicRoughness":{
			"baseColorFactor":[0.09565333333333326,
			0.34,
			0.0782,
			1.0],
			"metallicFactor":0.0,
			"roughnessFactor":0.5
		},
		"emissiveFactor":[0.0,
		0.0,
		0.0],
		"alphaMode":"OPAQUE",
		"doubleSided":true,
		"name":"材质"
	}]
}